<mxfile host="app.diagrams.net" agent="Mozilla/5.0 (Windows NT 10.0; Win64; x64) AppleWebKit/537.36 (KHTML, like Gecko) Chrome/139.0.0.0 Safari/537.36" version="28.1.2">
  <diagram name="Página-1" id="VMDvP2rLo-K2ZTFbkS8l">
    <mxGraphModel dx="1699" dy="439" grid="1" gridSize="10" guides="1" tooltips="1" connect="1" arrows="1" fold="1" page="1" pageScale="1" pageWidth="827" pageHeight="1169" math="0" shadow="0">
      <root>
        <mxCell id="0" />
        <mxCell id="1" parent="0" />
        <mxCell id="hX6Qi4lx2mb64ksaS4z7-6" value="&lt;p style=&quot;margin:0px;margin-top:4px;text-align:center;&quot;&gt;&lt;b&gt;Empleado&lt;/b&gt;&lt;/p&gt;&lt;hr size=&quot;1&quot; style=&quot;border-style:solid;&quot;&gt;&lt;p style=&quot;margin:0px;margin-left:4px;&quot;&gt;- nombre: String&lt;/p&gt;&lt;p style=&quot;margin:0px;margin-left:4px;&quot;&gt;- dirección: String&lt;/p&gt;&lt;p style=&quot;margin:0px;margin-left:4px;&quot;&gt;&lt;span style=&quot;background-color: transparent; color: light-dark(rgb(0, 0, 0), rgb(255, 255, 255));&quot;&gt;- fechaDeNacimiento: Date&lt;/span&gt;&lt;/p&gt;&lt;p style=&quot;margin:0px;margin-left:4px;&quot;&gt;- suedoBasico: Int&lt;/p&gt;&lt;hr size=&quot;1&quot; style=&quot;border-style:solid;&quot;&gt;&lt;div&gt;&amp;nbsp;+ edad(Date): Int&lt;/div&gt;&lt;div&gt;&amp;nbsp;&lt;u&gt;+ nuevoConNombre_de_unaDireccion conEstadoCivil_conFechaNac_ySueldoBasico_(String, String, EstadoCivil, Date, Int)&lt;/u&gt;&lt;/div&gt;&lt;div&gt;&amp;nbsp;+ nombre(): String&lt;/div&gt;&lt;div&gt;&amp;nbsp;+ direccion(): String&lt;/div&gt;&lt;div&gt;&lt;p style=&quot;margin:0px;margin-left:4px;&quot;&gt;+ estadoCivil(): String&lt;/p&gt;&lt;p style=&quot;margin:0px;margin-left:4px;&quot;&gt;+ fechaDeNacimiento(): Date&lt;/p&gt;&lt;p style=&quot;margin:0px;margin-left:4px;&quot;&gt;+ clasificacion(): Clasificacion&lt;/p&gt;&lt;p style=&quot;margin:0px;margin-left:4px;&quot;&gt;+ sueldoBasico(): float&lt;/p&gt;&lt;p style=&quot;margin:0px;margin-left:4px;&quot;&gt;+ sueldoBruto(): float&lt;/p&gt;&lt;p style=&quot;margin:0px;margin-left:4px;&quot;&gt;+ sueldoNeto(): float&lt;/p&gt;&lt;p style=&quot;margin:0px;margin-left:4px;&quot;&gt;+ retenciones(): float&lt;/p&gt;&lt;br&gt;&lt;/div&gt;&lt;br&gt;&lt;div&gt;&lt;br&gt;&lt;/div&gt;" style="verticalAlign=top;align=left;overflow=fill;html=1;whiteSpace=wrap;" parent="1" vertex="1">
          <mxGeometry x="260" y="190" width="310" height="290" as="geometry" />
        </mxCell>
        <mxCell id="hX6Qi4lx2mb64ksaS4z7-7" value="&lt;p style=&quot;margin:0px;margin-top:4px;text-align:center;&quot;&gt;&lt;b&gt;Empresa&lt;/b&gt;&lt;/p&gt;&lt;hr size=&quot;1&quot; style=&quot;border-style:solid;&quot;&gt;&lt;p style=&quot;margin:0px;margin-left:4px;&quot;&gt;- nombre: String&lt;/p&gt;&lt;p style=&quot;margin:0px;margin-left:4px;&quot;&gt;- cuit: Int&lt;br&gt;&lt;/p&gt;&lt;hr size=&quot;1&quot; style=&quot;border-style:solid;&quot;&gt;&lt;p style=&quot;margin:0px;margin-left:4px;&quot;&gt;&lt;u&gt;+ abrirConNombre_yCuit_ (Set, String, Int)&lt;/u&gt;&lt;/p&gt;&lt;p style=&quot;margin:0px;margin-left:4px;&quot;&gt;+ nombre(): String&lt;/p&gt;&lt;p style=&quot;margin:0px;margin-left:4px;&quot;&gt;+ cuit(): Int&lt;/p&gt;&lt;p style=&quot;margin:0px;margin-left:4px;&quot;&gt;+&amp;nbsp;&lt;span style=&quot;background-color: transparent;&quot;&gt;tieneRegistradoA(empleado): Boolean&lt;/span&gt;&lt;/p&gt;&lt;p style=&quot;margin:0px;margin-left:4px;&quot;&gt;+&amp;nbsp;&lt;span style=&quot;background-color: transparent;&quot;&gt;contratar_como_(Empleado, Clasificacion)&lt;/span&gt;&lt;/p&gt;&lt;p style=&quot;margin:0px;margin-left:4px;&quot;&gt;&lt;span style=&quot;background-color: transparent;&quot;&gt;+&amp;nbsp;&lt;/span&gt;&lt;span style=&quot;background-color: transparent;&quot;&gt;realizarLiquidacionDeSueldos()&lt;/span&gt;&lt;/p&gt;&lt;div&gt;&lt;span style=&quot;background-color: transparent; color: light-dark(rgb(0, 0, 0), rgb(255, 255, 255));&quot;&gt;&lt;br&gt;&lt;/span&gt;&lt;/div&gt;" style="verticalAlign=top;align=left;overflow=fill;html=1;whiteSpace=wrap;" parent="1" vertex="1">
          <mxGeometry x="290" y="585" width="250" height="165" as="geometry" />
        </mxCell>
        <mxCell id="hX6Qi4lx2mb64ksaS4z7-10" value="empleados" style="text;html=1;align=center;verticalAlign=middle;resizable=0;points=[];autosize=1;strokeColor=none;fillColor=none;" parent="1" vertex="1">
          <mxGeometry x="409" y="510" width="80" height="30" as="geometry" />
        </mxCell>
        <mxCell id="hX6Qi4lx2mb64ksaS4z7-11" value="*" style="text;html=1;align=center;verticalAlign=middle;resizable=0;points=[];autosize=1;strokeColor=none;fillColor=none;" parent="1" vertex="1">
          <mxGeometry x="384" y="555" width="30" height="30" as="geometry" />
        </mxCell>
        <mxCell id="hX6Qi4lx2mb64ksaS4z7-14" value="&lt;p style=&quot;margin:0px;margin-top:4px;text-align:center;&quot;&gt;&lt;b&gt;PlantaPermanente&lt;/b&gt;&lt;/p&gt;&lt;hr size=&quot;1&quot; style=&quot;border-style:solid;&quot;&gt;&lt;p style=&quot;margin:0px;margin-left:4px;&quot;&gt;- cantidadDeHijos: Int&lt;br&gt;- antigüedad: float&lt;/p&gt;&lt;hr size=&quot;1&quot; style=&quot;border-style:solid;&quot;&gt;&amp;nbsp;+ antigüedad: float&lt;div&gt;&amp;nbsp;+&amp;nbsp;cantidadDeHijos(): Int&lt;/div&gt;&lt;div&gt;&amp;nbsp;+&amp;nbsp;esPlantaPermanente(): Boolean&lt;/div&gt;" style="verticalAlign=top;align=left;overflow=fill;html=1;whiteSpace=wrap;" parent="1" vertex="1">
          <mxGeometry x="877.5" y="360" width="200" height="120" as="geometry" />
        </mxCell>
        <mxCell id="hX6Qi4lx2mb64ksaS4z7-15" value="Extends" style="endArrow=block;endSize=16;endFill=0;html=1;rounded=0;exitX=0;exitY=0.5;exitDx=0;exitDy=0;entryX=1;entryY=0.75;entryDx=0;entryDy=0;" parent="1" source="hX6Qi4lx2mb64ksaS4z7-14" target="Scza3sKwVRDlB7ZsT4hL-4" edge="1">
          <mxGeometry width="160" relative="1" as="geometry">
            <mxPoint x="657.5" y="390" as="sourcePoint" />
            <mxPoint x="707.5" y="360" as="targetPoint" />
          </mxGeometry>
        </mxCell>
        <mxCell id="hX6Qi4lx2mb64ksaS4z7-17" value="" style="endArrow=open;endFill=1;endSize=12;html=1;rounded=0;exitX=0.5;exitY=1;exitDx=0;exitDy=0;entryX=0.5;entryY=0;entryDx=0;entryDy=0;" parent="1" source="hX6Qi4lx2mb64ksaS4z7-6" target="hX6Qi4lx2mb64ksaS4z7-7" edge="1">
          <mxGeometry width="160" relative="1" as="geometry">
            <mxPoint x="610" y="560" as="sourcePoint" />
            <mxPoint x="610" y="455" as="targetPoint" />
          </mxGeometry>
        </mxCell>
        <mxCell id="hX6Qi4lx2mb64ksaS4z7-19" value="&lt;p style=&quot;margin:0px;margin-top:4px;text-align:center;&quot;&gt;&lt;b&gt;PlantaTemporaria&lt;/b&gt;&lt;/p&gt;&lt;hr size=&quot;1&quot; style=&quot;border-style:solid;&quot;&gt;&lt;p style=&quot;margin:0px;margin-left:4px;&quot;&gt;- fechaFinDesignacion: Date&lt;br&gt;- cantidadHorasExtras: Int&lt;/p&gt;&lt;hr size=&quot;1&quot; style=&quot;border-style:solid;&quot;&gt;&amp;nbsp;+&amp;nbsp;fechaFinDesignacion(): Date&lt;div&gt;&amp;nbsp;+&amp;nbsp;cantidadDeHorasExtras(): Int&lt;/div&gt;&lt;div&gt;&amp;nbsp;+ esPlantaTemporaria(): Boolean&lt;/div&gt;" style="verticalAlign=top;align=left;overflow=fill;html=1;whiteSpace=wrap;" parent="1" vertex="1">
          <mxGeometry x="877.5" y="70" width="200" height="120" as="geometry" />
        </mxCell>
        <mxCell id="hX6Qi4lx2mb64ksaS4z7-20" value="Extends" style="endArrow=block;endSize=16;endFill=0;html=1;rounded=0;exitX=0;exitY=0.5;exitDx=0;exitDy=0;entryX=1;entryY=0.25;entryDx=0;entryDy=0;" parent="1" source="hX6Qi4lx2mb64ksaS4z7-19" target="Scza3sKwVRDlB7ZsT4hL-4" edge="1">
          <mxGeometry x="-0.005" width="160" relative="1" as="geometry">
            <mxPoint x="786.24" y="370" as="sourcePoint" />
            <mxPoint x="787.5" y="110" as="targetPoint" />
            <mxPoint as="offset" />
          </mxGeometry>
        </mxCell>
        <mxCell id="Scza3sKwVRDlB7ZsT4hL-2" value="&lt;p style=&quot;margin:0px;margin-top:4px;text-align:center;&quot;&gt;&lt;b&gt;Contratado&lt;/b&gt;&lt;/p&gt;&lt;hr size=&quot;1&quot; style=&quot;border-style:solid;&quot;&gt;&lt;p style=&quot;margin:0px;margin-left:4px;&quot;&gt;- nroDeContrato: Int&lt;/p&gt;&lt;p style=&quot;margin:0px;margin-left:4px;&quot;&gt;- medioDePago: String&lt;/p&gt;&lt;hr size=&quot;1&quot; style=&quot;border-style:solid;&quot;&gt;&amp;nbsp;+ nroDeContrato: Int&lt;div&gt;&amp;nbsp;+ medioDePago(): String&lt;/div&gt;&lt;div&gt;&amp;nbsp;+&amp;nbsp;esContratado(): Boolean&lt;/div&gt;" style="verticalAlign=top;align=left;overflow=fill;html=1;whiteSpace=wrap;" vertex="1" parent="1">
          <mxGeometry x="877.5" y="210" width="200" height="120" as="geometry" />
        </mxCell>
        <mxCell id="Scza3sKwVRDlB7ZsT4hL-3" value="Extends" style="endArrow=block;endSize=16;endFill=0;html=1;rounded=0;exitX=0;exitY=0.5;exitDx=0;exitDy=0;entryX=1;entryY=0.5;entryDx=0;entryDy=0;" edge="1" parent="1" source="Scza3sKwVRDlB7ZsT4hL-2" target="Scza3sKwVRDlB7ZsT4hL-4">
          <mxGeometry width="160" relative="1" as="geometry">
            <mxPoint x="854.5" y="280" as="sourcePoint" />
            <mxPoint x="737.5" y="250" as="targetPoint" />
          </mxGeometry>
        </mxCell>
        <mxCell id="Scza3sKwVRDlB7ZsT4hL-4" value="&lt;p style=&quot;margin:0px;margin-top:4px;text-align:center;&quot;&gt;&lt;b&gt;&lt;i&gt;Clasificacion&lt;/i&gt;&lt;/b&gt;&lt;/p&gt;&lt;hr size=&quot;1&quot; style=&quot;border-style:solid;&quot;&gt;&lt;p style=&quot;margin:0px;margin-left:4px;&quot;&gt;&lt;/p&gt;" style="verticalAlign=top;align=left;overflow=fill;html=1;whiteSpace=wrap;" vertex="1" parent="1">
          <mxGeometry x="647.5" y="210" width="110" height="100" as="geometry" />
        </mxCell>
        <mxCell id="Scza3sKwVRDlB7ZsT4hL-5" value="" style="endArrow=open;endSize=12;html=1;rounded=0;entryX=1;entryY=0.25;entryDx=0;entryDy=0;exitX=0;exitY=0.5;exitDx=0;exitDy=0;" edge="1" parent="1" source="Scza3sKwVRDlB7ZsT4hL-4" target="hX6Qi4lx2mb64ksaS4z7-6">
          <mxGeometry width="160" relative="1" as="geometry">
            <mxPoint x="630" y="590" as="sourcePoint" />
            <mxPoint x="790" y="590" as="targetPoint" />
          </mxGeometry>
        </mxCell>
        <mxCell id="Scza3sKwVRDlB7ZsT4hL-6" value="&lt;font size=&quot;1&quot;&gt;1&lt;/font&gt;" style="text;html=1;align=center;verticalAlign=middle;resizable=0;points=[];autosize=1;strokeColor=none;fillColor=none;" vertex="1" parent="1">
          <mxGeometry x="580" y="240" width="30" height="30" as="geometry" />
        </mxCell>
        <mxCell id="Scza3sKwVRDlB7ZsT4hL-8" value="&lt;p style=&quot;margin:0px;margin-top:4px;text-align:center;&quot;&gt;&lt;b&gt;&lt;i&gt;EstadoCivil&lt;/i&gt;&lt;/b&gt;&lt;/p&gt;&lt;hr size=&quot;1&quot; style=&quot;border-style:solid;&quot;&gt;&lt;p style=&quot;margin:0px;margin-left:4px;&quot;&gt;&lt;/p&gt;" style="verticalAlign=top;align=left;overflow=fill;html=1;whiteSpace=wrap;" vertex="1" parent="1">
          <mxGeometry x="80" y="210" width="110" height="100" as="geometry" />
        </mxCell>
        <mxCell id="Scza3sKwVRDlB7ZsT4hL-9" value="" style="endArrow=open;endSize=12;html=1;rounded=0;entryX=0;entryY=0.25;entryDx=0;entryDy=0;exitX=1;exitY=0.5;exitDx=0;exitDy=0;" edge="1" parent="1" source="Scza3sKwVRDlB7ZsT4hL-8" target="hX6Qi4lx2mb64ksaS4z7-6">
          <mxGeometry width="160" relative="1" as="geometry">
            <mxPoint x="658" y="280" as="sourcePoint" />
            <mxPoint x="580" y="273" as="targetPoint" />
          </mxGeometry>
        </mxCell>
        <mxCell id="Scza3sKwVRDlB7ZsT4hL-10" value="&lt;font size=&quot;1&quot;&gt;1&lt;/font&gt;" style="text;html=1;align=center;verticalAlign=middle;resizable=0;points=[];autosize=1;strokeColor=none;fillColor=none;" vertex="1" parent="1">
          <mxGeometry x="220" y="230" width="30" height="30" as="geometry" />
        </mxCell>
        <mxCell id="Scza3sKwVRDlB7ZsT4hL-11" value="&lt;p style=&quot;margin:0px;margin-top:4px;text-align:center;&quot;&gt;&lt;b&gt;Casado&lt;/b&gt;&lt;/p&gt;&lt;hr size=&quot;1&quot; style=&quot;border-style:solid;&quot;&gt;&lt;p style=&quot;margin:0px;margin-left:4px;&quot;&gt;&lt;br&gt;&lt;/p&gt;&lt;hr size=&quot;1&quot; style=&quot;border-style:solid;&quot;&gt;&amp;nbsp;+ asignacionConjugue(): Int&lt;br&gt;&lt;div&gt;&amp;nbsp;+ esCasado(): Boolean&lt;/div&gt;" style="verticalAlign=top;align=left;overflow=fill;html=1;whiteSpace=wrap;" vertex="1" parent="1">
          <mxGeometry x="-180" y="160" width="180" height="90" as="geometry" />
        </mxCell>
        <mxCell id="Scza3sKwVRDlB7ZsT4hL-12" value="&lt;p style=&quot;margin:0px;margin-top:4px;text-align:center;&quot;&gt;&lt;b&gt;Soltero&lt;/b&gt;&lt;/p&gt;&lt;hr size=&quot;1&quot; style=&quot;border-style:solid;&quot;&gt;&lt;p style=&quot;margin:0px;margin-left:4px;&quot;&gt;&lt;br&gt;&lt;/p&gt;&lt;hr size=&quot;1&quot; style=&quot;border-style:solid;&quot;&gt;&amp;nbsp;+ asignacionConjugue(): Int&lt;br&gt;&lt;div&gt;&amp;nbsp;+ esSoltero(): Boolean&lt;/div&gt;" style="verticalAlign=top;align=left;overflow=fill;html=1;whiteSpace=wrap;" vertex="1" parent="1">
          <mxGeometry x="-180" y="280" width="180" height="90" as="geometry" />
        </mxCell>
        <mxCell id="Scza3sKwVRDlB7ZsT4hL-13" value="Extends" style="endArrow=block;endSize=16;endFill=0;html=1;rounded=0;exitX=1;exitY=0.5;exitDx=0;exitDy=0;entryX=-0.027;entryY=0.69;entryDx=0;entryDy=0;entryPerimeter=0;" edge="1" parent="1" source="Scza3sKwVRDlB7ZsT4hL-12" target="Scza3sKwVRDlB7ZsT4hL-8">
          <mxGeometry width="160" relative="1" as="geometry">
            <mxPoint x="120" y="330" as="sourcePoint" />
            <mxPoint x="280" y="330" as="targetPoint" />
          </mxGeometry>
        </mxCell>
        <mxCell id="Scza3sKwVRDlB7ZsT4hL-14" value="Extends" style="endArrow=block;endSize=16;endFill=0;html=1;rounded=0;exitX=1;exitY=0.5;exitDx=0;exitDy=0;entryX=0;entryY=0.5;entryDx=0;entryDy=0;" edge="1" parent="1" source="Scza3sKwVRDlB7ZsT4hL-11" target="Scza3sKwVRDlB7ZsT4hL-8">
          <mxGeometry width="160" relative="1" as="geometry">
            <mxPoint x="30" y="365" as="sourcePoint" />
            <mxPoint x="87" y="289" as="targetPoint" />
          </mxGeometry>
        </mxCell>
        <mxCell id="Scza3sKwVRDlB7ZsT4hL-15" value="&lt;p style=&quot;margin:0px;margin-top:4px;text-align:center;&quot;&gt;&lt;b&gt;ReciboDeHaberes&lt;/b&gt;&lt;/p&gt;&lt;hr size=&quot;1&quot; style=&quot;border-style:solid;&quot;&gt;&lt;p style=&quot;margin:0px;margin-left:4px;&quot;&gt;&lt;br&gt;&lt;/p&gt;&lt;hr size=&quot;1&quot; style=&quot;border-style:solid;&quot;&gt;&lt;p style=&quot;margin:0px;margin-left:4px;&quot;&gt;&lt;u&gt;+ generarPara(Empleado)&lt;/u&gt;&lt;/p&gt;&lt;div&gt;&lt;span style=&quot;background-color: transparent; color: light-dark(rgb(0, 0, 0), rgb(255, 255, 255));&quot;&gt;&lt;br&gt;&lt;/span&gt;&lt;/div&gt;" style="verticalAlign=top;align=left;overflow=fill;html=1;whiteSpace=wrap;" vertex="1" parent="1">
          <mxGeometry x="710" y="627.5" width="232.5" height="80" as="geometry" />
        </mxCell>
        <mxCell id="Scza3sKwVRDlB7ZsT4hL-16" value="" style="endArrow=open;endFill=1;endSize=12;html=1;rounded=0;exitX=0;exitY=0.5;exitDx=0;exitDy=0;entryX=1;entryY=0.5;entryDx=0;entryDy=0;" edge="1" parent="1" source="Scza3sKwVRDlB7ZsT4hL-15" target="hX6Qi4lx2mb64ksaS4z7-7">
          <mxGeometry width="160" relative="1" as="geometry">
            <mxPoint x="425" y="490" as="sourcePoint" />
            <mxPoint x="425" y="595" as="targetPoint" />
          </mxGeometry>
        </mxCell>
        <mxCell id="Scza3sKwVRDlB7ZsT4hL-17" value="*" style="text;html=1;align=center;verticalAlign=middle;resizable=0;points=[];autosize=1;strokeColor=none;fillColor=none;" vertex="1" parent="1">
          <mxGeometry x="540" y="640" width="30" height="30" as="geometry" />
        </mxCell>
        <mxCell id="Scza3sKwVRDlB7ZsT4hL-18" value="&lt;font style=&quot;font-size: 11px;&quot;&gt;recibosDeHaberes&lt;/font&gt;" style="text;html=1;align=center;verticalAlign=middle;resizable=0;points=[];autosize=1;strokeColor=none;fillColor=none;" vertex="1" parent="1">
          <mxGeometry x="575" y="640" width="110" height="30" as="geometry" />
        </mxCell>
      </root>
    </mxGraphModel>
  </diagram>
</mxfile>
